<svg
  width="512"
  height="512"
  viewBox="0 0 512 512"
  fill="none"
  xmlns="http://www.w3.org/2000/svg"
>
  <rect width="512" height="512" rx="112" fill="white" />
  <rect
    x="18"
    y="18"
    width="476"
    height="476"
    rx="94"
    fill="white"
    fill-opacity="0.96"
    stroke="#E3E8E4"
    stroke-width="4"
  />
  <g transform="translate(86 52) scale(2.12564)">
    <path d="M80 0 L148 39 L148 117 L80 156 L12 117 L12 39 Z" fill="#1B4D35" />
    <path d="M80 6 L142 42 L142 114 L80 150 L18 114 L18 42 Z" fill="#236645" />
    <line
      x1="80"
      y1="130"
      x2="80"
      y2="30"
      stroke="#F5C842"
      stroke-width="2"
      stroke-linecap="round"
    />
    <ellipse cx="80" cy="24" rx="3" ry="8" fill="#F5C842" />
    <ellipse
      cx="73"
      cy="40"
      rx="2.2"
      ry="9"
      fill="#F5C842"
      transform="rotate(-35 73 40)"
    />
    <ellipse
      cx="87"
      cy="40"
      rx="2.2"
      ry="9"
      fill="#F5C842"
      transform="rotate(35 87 40)"
    />
    <ellipse
      cx="71"
      cy="54"
      rx="2.2"
      ry="10"
      fill="#F5C842"
      transform="rotate(-38 71 54)"
    />
    <ellipse
      cx="89"
      cy="54"
      rx="2.2"
      ry="10"
      fill="#F5C842"
      transform="rotate(38 89 54)"
    />
    <ellipse
      cx="70"
      cy="68"
      rx="2.2"
      ry="10"
      fill="#F5C842"
      transform="rotate(-40 70 68)"
    />
    <ellipse
      cx="90"
      cy="68"
      rx="2.2"
      ry="10"
      fill="#F5C842"
      transform="rotate(40 90 68)"
    />
    <ellipse
      cx="70"
      cy="82"
      rx="2.2"
      ry="10"
      fill="#F5C842"
      transform="rotate(-40 70 82)"
    />
    <ellipse
      cx="90"
      cy="82"
      rx="2.2"
      ry="10"
      fill="#F5C842"
      transform="rotate(40 90 82)"
    />
    <ellipse
      cx="71"
      cy="95"
      rx="2"
      ry="8.5"
      fill="#F5C842"
      transform="rotate(-37 71 95)"
    />
    <ellipse
      cx="89"
      cy="95"
      rx="2"
      ry="8.5"
      fill="#F5C842"
      transform="rotate(37 89 95)"
    />
    <ellipse
      cx="73"
      cy="107"
      rx="1.8"
      ry="7"
      fill="#F5C842"
      fill-opacity="0.8"
      transform="rotate(-33 73 107)"
    />
    <ellipse
      cx="87"
      cy="107"
      rx="1.8"
      ry="7"
      fill="#F5C842"
      fill-opacity="0.8"
      transform="rotate(33 87 107)"
    />
    <ellipse
      cx="75"
      cy="118"
      rx="1.6"
      ry="5.5"
      fill="#F5C842"
      fill-opacity="0.6"
      transform="rotate(-28 75 118)"
    />
    <ellipse
      cx="85"
      cy="118"
      rx="1.6"
      ry="5.5"
      fill="#F5C842"
      fill-opacity="0.6"
      transform="rotate(28 85 118)"
    />
  </g>
</svg>
