<svg
  width="512"
  height="512"
  viewBox="0 0 512 512"
  fill="none"
  xmlns="http://www.w3.org/2000/svg"
>
  <rect width="512" height="512" rx="112" fill="white" />
  <rect
    x="18"
    y="18"
    width="476"
    height="476"
    rx="94"
    fill="white"
    fill-opacity="0.96"
    stroke="#D8E5F6"
    stroke-width="4"
  />
  <g transform="translate(56 61) scale(2.5)">
    <path d="M80 0 L148 39 L148 117 L80 156 L12 117 L12 39 Z" fill="#0E2E5C" />
    <path d="M80 6 L142 42 L142 114 L80 150 L18 114 L18 42 Z" fill="#1A4480" />
    <path
      d="M40 123C47 99 59 81 73 66C87 52 101 41 118 31"
      stroke="#F5C842"
      stroke-width="7.5"
      stroke-linecap="round"
    />
    <ellipse cx="58" cy="92" rx="5.5" ry="20" fill="#F5C842" transform="rotate(12 58 92)" />
    <ellipse cx="76" cy="73" rx="5.5" ry="27" fill="#F5C842" transform="rotate(17 76 73)" />
    <ellipse cx="96" cy="57" rx="5.5" ry="28" fill="#F5C842" transform="rotate(20 96 57)" />
    <ellipse cx="112" cy="45" rx="5.2" ry="22" fill="#F5C842" transform="rotate(18 112 45)" />
    <ellipse cx="69" cy="99" rx="4.8" ry="18" fill="#F5C842" transform="rotate(-66 69 99)" />
    <ellipse cx="86" cy="85" rx="4.8" ry="20" fill="#F5C842" transform="rotate(-64 86 85)" />
    <ellipse cx="101" cy="69" rx="4.8" ry="18" fill="#F5C842" transform="rotate(-62 101 69)" />
    <ellipse cx="115" cy="57" rx="4.2" ry="14" fill="#F5C842" transform="rotate(-60 115 57)" />
    <ellipse cx="125" cy="49" rx="3.5" ry="9" fill="#F5C842" transform="rotate(-57 125 49)" />
    <ellipse cx="129" cy="39" rx="2.6" ry="6.5" fill="#F5C842" transform="rotate(-76 129 39)" />
  </g>
</svg>
